<?xml version='1.0' encoding='iso-8859-1'?>
<svg version="1.1" xmlns="http://www.w3.org/2000/svg" viewBox="0 0 489.9 489.9" xmlns:xlink="http://www.w3.org/1999/xlink" enable-background="new 0 0 489.9 489.9">
  <g>
    <g>
      <path d="m412.8,259.45v-213.6h-88.6v-40.7h-20.8v40.7h-86.5v-40.7h-20.9v40.7h-86.5v-40.7h-20.9v40.7h-88.6v355.5h267.2c13.8,48 57.6,83.4 109.1,83.4 62.5,0 113.6-52.1 113.6-115.7 0.1-50.7-32.3-94-77.1-109.6zm-391.9-192.8h67.7v44.8h20.8v-44.8h86.6v44.8h20.8v-44.8h86.5v44.8h20.8v-44.8h67.9v95.9h-371.1v-95.9zm242.5,313.9h-242.5v-0.1-197h371.1v71c-5.1-0.7-10.3-1.1-15.6-1.1-62.5,0-113.6,52.1-113.6,115.7 5.68434e-14,3.9 0.2,7.7 0.6,11.5zm113,83.3c-51.1,0-92.8-42.7-92.8-94.9 0-52.1 41.7-94.9 92.8-94.9s92.8,42.7 92.8,94.9-41.8,94.9-92.8,94.9z"/>
      <polygon points="365.9,354.45 332.5,354.45 332.5,375.25 386.8,375.25 386.8,293.25 365.9,293.25   "/>
    </g>
  </g>
</svg>
