<?xml version='1.0' encoding='iso-8859-1'?>
<!DOCTYPE svg PUBLIC '-//W3C//DTD SVG 1.1//EN' 'http://www.w3.org/Graphics/SVG/1.1/DTD/svg11.dtd'>
<svg version="1.1" xmlns="http://www.w3.org/2000/svg" viewBox="0 0 512 512" xmlns:xlink="http://www.w3.org/1999/xlink" enable-background="new 0 0 512 512">
  <path d="m461.82,3.142c-11.117-5.32-24.281-3.781-33.883,3.93-41.156,33.109-110.718,33.109-151.875,0-11.719-9.422-28.406-9.422-40.125,0-41.156,33.109-110.718,33.109-151.875,0-9.586-7.719-22.773-9.258-33.883-3.93-11.108,5.32-18.179,16.539-18.179,28.859v255.999c0,100.297 80.398,183.562 215.062,222.726 2.922,0.852 5.93,1.273 8.938,1.273 3.008,0 6.016-0.422 8.938-1.273 134.664-39.164 215.062-122.429 215.062-222.726v-255.999c-0.001-12.32-7.071-23.539-18.18-28.859zm-365.82,284.859v-32h160v-185.219c47.445,27.922 107.945,32.852 160,14.75v170.468h-160v190.57c-100.39-31.507-160-90.351-160-158.569z"/>
</svg>
