<?xml version="1.0" encoding="UTF-8" standalone="no"?>
<svg
   xmlns:dc="http://purl.org/dc/elements/1.1/"
   xmlns:cc="http://creativecommons.org/ns#"
   xmlns:rdf="http://www.w3.org/1999/02/22-rdf-syntax-ns#"
   xmlns:svg="http://www.w3.org/2000/svg"
   xmlns="http://www.w3.org/2000/svg"
   xmlns:xlink="http://www.w3.org/1999/xlink"
   width="200.24156mm"
   height="202.22371mm"
   viewBox="0 0 200.24156 202.22371"
   version="1.1"
   id="svg1762">
  <defs
     id="defs1756">
    <clipPath
       clipPathUnits="userSpaceOnUse"
       id="clipPath1315">
      <path
         d="m 1625.52,542.012 c -40.65,0 -75.73,8.187 -75.73,8.187 0,0 -59.56,127.321 -107.34,155.5 -17.95,10.539 -139.16,26 -257.66,36.031 -69.89,5.911 -138.84,9.93 -185.11,9.93 -24.043,0 -41.953,-1.09 -50.696,-3.551 -10.523,-3 -22.609,-7.961 -35.132,-13.929 -47.043,-22.43 -100.297,-59.11 -100.297,-59.11 0,0 -5.067,-0.488 -13.856,-0.488 -11.98,0 -30.886,0.91 -53.336,5.207 -34.683,6.59 -61.261,23.551 -61.261,23.551 0,0 -0.18,4.832 -0.457,13.512 -1.442,45.589 -5.481,197.597 0.457,316.348 4.738,94.76 103.714,311.31 194.144,465.05 0.008,0.02 0,0 0.008,0.01 44.461,75.59 86.859,136.01 114.969,159.31 8.897,7.33 19.357,15.18 31.037,23.31 v 0 c 18.63,12.96 40.39,26.65 63.96,40.2 15.37,8.84 31.5,17.63 48.03,26.14 -6.16,-70.23 30.58,-139.15 30.58,-139.15 0,0 39.97,71.46 132.9,111.23 52.25,22.35 102.93,27.24 137.3,27.24 26.75,0 43.62,-2.97 43.62,-2.97 0,0 0.01,0.03 0.02,0.09 24.04,-29.84 49.57,-67.25 74.92,-110.96 0,-0.01 -0.01,-0.01 -0.01,-0.01 l -0.29,-0.67 c -1.46,-3.84 -8.75,-23.74 -8.76,-50.91 0,-14.86 2.17,-31.89 8.67,-49.65 30.08,-82.35 99.68,-116.32 101.74,-117.31 24.66,-67.51 46,-140.96 61.49,-218.38 37.73,-188.67 33.79,-360.809 22.69,-477.141 -8.99,-94.309 -22.69,-151.938 -22.69,-151.938 -24.56,-19.332 -61.05,-24.679 -93.91,-24.679 m 73.54,113.636 c -3.9,0 -7.07,-14.148 -7.07,-31.609 0,-17.449 3.17,-31.609 7.07,-31.609 3.9,0 7.07,14.16 7.07,31.609 0,17.461 -3.17,31.609 -7.07,31.609 m 0.18,427.662 c -3.32,0 -6.65,-2.25 -6.84,-6.47 -1.94,-44.11 -4.27,-117.301 -3.55,-203.711 0.63,-76.5 2.7,-149.899 4.48,-201.348 0.15,-4.312 3.48,-6.543 6.8,-6.543 3.07,0 6.13,1.903 6.68,5.844 7.79,56.008 17.56,135.387 20.91,202.047 3.79,75.332 -10.94,156.561 -21.94,204.931 -0.81,3.56 -3.67,5.25 -6.54,5.25"
         id="path1313" />
    </clipPath>
    <linearGradient
       x1="0"
       y1="0"
       x2="1"
       y2="0"
       gradientUnits="userSpaceOnUse"
       gradientTransform="matrix(0,1283.04,1283.04,0,1215.88,542.01)"
       spreadMethod="pad"
       id="linearGradient1321"
       xlink:href="#linearGradient1343">
      <stop
         style="stop-opacity:1;stop-color:#349e7c"
         offset="0"
         id="stop1317" />
      <stop
         style="stop-opacity:1;stop-color:#42be93"
         offset="1"
         id="stop1319" />
    </linearGradient>
    <clipPath
       clipPathUnits="userSpaceOnUse"
       id="clipPath1337">
      <path
         d="m 1448.05,1329.1 c -5.94,-17.43 -13.95,-33.36 -23.47,-47.3 -18.66,-27.34 -43.07,-47.03 -69.27,-55.79 -13.29,-4.44 -27.05,-6.04 -40.71,-4.34 -18.1,23.37 -18.95,63.05 0.19,99.04 l 0.56,1.05 c 4.81,8.76 10.37,16.77 16.68,23.65 25.45,28.55 60.89,40.05 87.55,25.54 15.18,-8.2 24.89,-23.47 28.47,-41.85 z"
         id="path1335" />
    </clipPath>
    <linearGradient
       x1="0"
       y1="0"
       x2="1"
       y2="0"
       gradientUnits="userSpaceOnUse"
       gradientTransform="matrix(147.316,0,0,-147.316,1300.73,1299.12)"
       spreadMethod="pad"
       id="linearGradient1343">
      <stop
         style="stop-opacity:1;stop-color:#a02c1f"
         offset="0"
         id="stop1339" />
      <stop
         style="stop-opacity:1;stop-color:#651317"
         offset="1"
         id="stop1341" />
    </linearGradient>
    <clipPath
       clipPathUnits="userSpaceOnUse"
       id="clipPath1365">
      <path
         d="m 1113.1,1349.62 c -7.25,-16.7 -16.13,-31.68 -26.1,-44.54 -19.54,-25.21 -43.21,-42.23 -67.14,-48.21 -12.14,-3.01 -24.356,-3.17 -36.106,-0.06 -13.055,25.08 -9.109,64.58 11.867,98.34 l 0.613,0.96 c 5.236,8.21 11.046,15.58 17.376,21.76 25.62,25.7 57.95,33.44 79.55,16.26 12.3,-9.73 18.98,-25.89 19.94,-44.51 z"
         id="path1363" />
    </clipPath>
    <linearGradient
       x1="0"
       y1="0"
       x2="1"
       y2="0"
       gradientUnits="userSpaceOnUse"
       gradientTransform="matrix(128.777,-15.3162,-15.3162,-128.777,980.781,1335.16)"
       spreadMethod="pad"
       id="linearGradient1371">
      <stop
         style="stop-opacity:1;stop-color:#a02c1f"
         offset="0"
         id="stop1367" />
      <stop
         style="stop-opacity:1;stop-color:#651317"
         offset="1"
         id="stop1369" />
    </linearGradient>
    <clipPath
       clipPathUnits="userSpaceOnUse"
       id="clipPath1407">
      <path
         d="m 1657.66,1286.91 c 0,0 199.48,82.46 216.76,104.46 17.28,21.99 22.38,59.25 33.63,90.64 11.19,31.22 -1.63,48.36 1.99,52.85 6.55,8.12 19.9,-2.58 24.62,-23.79 4.71,-21.2 -2.52,-42.73 -2.52,-42.73 0,0 95.98,60.61 106.58,54.12 10.6,-6.47 -53.56,-60.6 -53.56,-60.6 0,0 93.02,28.21 100.68,18.19 7.66,-10.01 -76.53,-45.88 -76.53,-45.88 0,0 82.74,4.26 90.67,-2.81 7.92,-7.07 -80.9,-27.88 -80.9,-27.88 0,0 53.02,-9.38 49.48,-19.68 -1.92,-5.61 -68.98,-5.29 -78.4,-6.47 -9.42,-1.18 -89.82,-11.48 -89.82,-11.48 L 1693,1144.77 c 0,0 -37.24,9.57 -52.06,62.6 -14.92,53.41 16.72,79.54 16.72,79.54 z"
         id="path1405" />
    </clipPath>
    <linearGradient
       x1="0"
       y1="0"
       x2="1"
       y2="0"
       gradientUnits="userSpaceOnUse"
       gradientTransform="matrix(463.534,0,0,-463.534,1636.94,1341.17)"
       spreadMethod="pad"
       id="linearGradient1413">
      <stop
         style="stop-opacity:1;stop-color:#349e7c"
         offset="0"
         id="stop1409" />
      <stop
         style="stop-opacity:1;stop-color:#42be93"
         offset="1"
         id="stop1411" />
    </linearGradient>
    <clipPath
       clipPathUnits="userSpaceOnUse"
       id="clipPath1431">
      <path
         d="m 1700.13,665.238 c -3.32,0 -6.65,2.231 -6.8,6.543 -1.78,51.449 -3.85,124.848 -4.48,201.348 -0.72,86.41 1.61,159.601 3.55,203.711 0.19,4.22 3.52,6.47 6.84,6.47 2.87,0 5.73,-1.69 6.54,-5.25 11,-48.37 25.73,-129.599 21.94,-204.931 -3.35,-66.66 -13.12,-146.039 -20.91,-202.047 -0.55,-3.941 -3.61,-5.844 -6.68,-5.844"
         id="path1429" />
    </clipPath>
    <linearGradient
       x1="0"
       y1="0"
       x2="1"
       y2="0"
       gradientUnits="userSpaceOnUse"
       gradientTransform="matrix(0,1283.04,1283.04,0,1215.88,542.01)"
       spreadMethod="pad"
       id="linearGradient1437">
      <stop
         style="stop-opacity:1;stop-color:#6accad"
         offset="0"
         id="stop1433" />
      <stop
         style="stop-opacity:1;stop-color:#73cfb5"
         offset="1"
         id="stop1435" />
    </linearGradient>
    <clipPath
       clipPathUnits="userSpaceOnUse"
       id="clipPath1447">
      <path
         d="m 1699.06,592.43 c -3.9,0 -7.07,14.16 -7.07,31.609 0,17.461 3.17,31.609 7.07,31.609 3.9,0 7.07,-14.148 7.07,-31.609 0,-17.449 -3.17,-31.609 -7.07,-31.609"
         id="path1445" />
    </clipPath>
    <linearGradient
       xlink:href="#linearGradient1371"
       id="linearGradient3194"
       x1="1636.9417"
       y1="1341.1738"
       x2="2100.4797"
       y2="1341.1738"
       gradientUnits="userSpaceOnUse" />
    <linearGradient
       xlink:href="#linearGradient1371"
       id="linearGradient3210"
       x1="60.668571"
       y1="115.43044"
       x2="73.151047"
       y2="115.43044"
       gradientUnits="userSpaceOnUse"
       gradientTransform="matrix(3.5750775,0,0,3.9367466,-212.33532,-350.36301)" />
    <linearGradient
       xlink:href="#linearGradient1371"
       id="linearGradient3218"
       x1="85.223244"
       y1="115.47502"
       x2="94.998383"
       y2="115.47502"
       gradientUnits="userSpaceOnUse"
       gradientTransform="matrix(3.5750775,0,0,3.9367466,-212.33532,-350.36301)" />
    <linearGradient
       xlink:href="#linearGradient1371"
       id="linearGradient3226"
       x1="73.782944"
       y1="114.19691"
       x2="82.593147"
       y2="114.19691"
       gradientUnits="userSpaceOnUse"
       gradientTransform="matrix(3.5750775,0,0,3.9367466,-212.33532,-350.36301)" />
    <linearGradient
       xlink:href="#linearGradient1371"
       id="linearGradient3234"
       x1="78.335571"
       y1="130.63524"
       x2="87.043892"
       y2="130.63524"
       gradientUnits="userSpaceOnUse"
       gradientTransform="matrix(3.5750775,0,0,3.9367466,-212.33532,-350.36301)" />
    <linearGradient
       xlink:href="#linearGradient1371"
       id="linearGradient3242"
       x1="77.374886"
       y1="122.88812"
       x2="88.677963"
       y2="122.88812"
       gradientUnits="userSpaceOnUse"
       gradientTransform="matrix(3.5750775,0,0,3.9367466,-212.33532,-350.36301)" />
    <linearGradient
       xlink:href="#linearGradient1343"
       id="linearGradient3383"
       gradientUnits="userSpaceOnUse"
       gradientTransform="matrix(147.316,0,0,-147.316,1300.73,1299.12)"
       x1="0"
       y1="0"
       x2="1"
       y2="0"
       spreadMethod="pad" />
    <linearGradient
       xlink:href="#linearGradient1371"
       id="linearGradient3385"
       gradientUnits="userSpaceOnUse"
       gradientTransform="matrix(128.777,-15.3162,-15.3162,-128.777,980.781,1335.16)"
       x1="0"
       y1="0"
       x2="1"
       y2="0"
       spreadMethod="pad" />
    <linearGradient
       xlink:href="#linearGradient1371"
       id="linearGradient3651"
       x1="128.50471"
       y1="222.46567"
       x2="167.79099"
       y2="222.46567"
       gradientUnits="userSpaceOnUse" />
    <linearGradient
       xlink:href="#linearGradient1371"
       id="linearGradient3659"
       x1="18.231871"
       y1="203.04073"
       x2="47.221638"
       y2="203.04073"
       gradientUnits="userSpaceOnUse" />
  </defs>
  <metadata
     id="metadata1759">
    <rdf:RDF>
      <cc:Work
         rdf:about="">
        <dc:format>image/svg+xml</dc:format>
        <dc:type
           rdf:resource="http://purl.org/dc/dcmitype/StillImage" />
        <dc:title></dc:title>
      </cc:Work>
    </rdf:RDF>
  </metadata>
  <g
     id="layer1"
     transform="translate(-4.5595314,-25.806822)">
    <path
       d="m 68.975323,75.396586 c -3.850965,11.610331 -12.83707,16.296161 -12.83707,16.296161 0,0 -1.390229,-0.890255 -3.506285,-2.59152 -2.554829,-2.09431 -6.180423,-5.405191 -9.651144,-9.829898 -2.282533,-2.917878 -4.504908,-6.320407 -6.311459,-10.18267 -0.642459,-1.387389 -1.236616,-2.827568 -1.75926,-4.333019 -1.05828,-3.03594 -1.794825,-5.994051 -2.258445,-8.834138 -0.558591,-3.402569 -0.736922,-6.64818 -0.654189,-9.634085 l 0.01259,-0.35155 c 0.344315,-9.856272 3.529868,-16.897474 5.229474,-18.15572 1.735675,-1.269361 3.209772,4.333043 11.351374,14.162949 1.058281,1.269361 2.22288,2.604003 3.506789,4.01777 2.079481,2.251267 4.480695,4.68583 7.274143,7.264831 1.56907,1.451282 3.2688,2.956732 5.1113,4.502456 0.974029,0.811049 1.985137,1.648513 3.043283,2.487354 0.462874,0.377928 0.925732,0.758257 1.401205,1.124926 0,0 0.440162,1.138784 0.773123,3.023381 0.464117,2.617898 0.713844,6.675975 -0.725201,11.032615"
       style="fill:#f79021;fill-opacity:1;fill-rule:nonzero;stroke:none;stroke-width:0.132346"
       id="path1283" />
    <path
       d="m 52.097469,45.961022 c -1.616364,1.806847 -4.243713,4.162244 -8.118522,6.099594 -4.314214,2.159582 -8.546198,3.298404 -11.327287,3.860886 -0.558591,-3.402569 -0.736922,-6.64818 -0.654189,-9.634085 l 0.01259,-0.35155 c 2.198662,0.01186 5.978376,-0.118097 9.734382,-1.074931 2.983512,-0.758255 5.301486,-1.94846 6.846466,-2.91784 1.058281,1.269361 2.22288,2.604003 3.506789,4.01777"
       style="fill:#f0373b;fill-opacity:1;fill-rule:nonzero;stroke:none;stroke-width:0.132346"
       id="path1285" />
    <path
       d="m 64.482911,57.728312 c -1.438537,2.983147 -4.659031,8.664699 -10.257659,13.794909 -3.958552,3.638656 -8.213617,6.189864 -11.244428,7.748108 -2.282533,-2.917878 -4.504908,-6.320407 -6.311459,-10.18267 2.139133,-0.66661 5.669,-2.067895 10.733004,-5.078796 6.727285,-4.016427 10.483415,-8.663323 11.969242,-10.784009 1.56907,1.451282 3.2688,2.956734 5.1113,4.502458"
       style="fill:#f0373b;fill-opacity:1;fill-rule:nonzero;stroke:none;stroke-width:0.132346"
       id="path1287" />
    <path
       d="m 50.778118,87.523576 c -1.49718,-1.324911 -3.194388,-2.952599 -4.937882,-4.87192 1.744505,1.917944 3.442721,3.54559 4.93889,4.870503 -10e-4,0.0015 0,-0.0014 -10e-4,0.0015"
       style="fill:#e5d6d5;fill-opacity:1;fill-rule:nonzero;stroke:none;stroke-width:0.132346"
       id="path1291" />
    <path
       d="m 50.779126,87.522159 c -1.496169,-1.324913 -3.194385,-2.952559 -4.93889,-4.870503 -0.946408,-1.041585 -1.907071,-2.169305 -2.856005,-3.381704 3.030808,-1.558245 7.283982,-4.109452 11.241021,-7.746731 2.920456,-2.676199 5.194157,-5.502389 6.905114,-8.017499 2.830404,-0.876358 5.017337,-2.249851 6.395831,-3.290056 0.462874,0.377926 0.925732,0.758256 1.401204,1.124925 0,0 0.112298,0.290138 0.266132,0.819394 -1.473096,1.129059 -2.792312,2.219262 -3.91441,3.237266 -3.545254,3.235888 -8.892522,11.627023 -14.499983,22.124908"
       style="fill:#eb801a;fill-opacity:1;fill-rule:nonzero;stroke:none;stroke-width:0.132346"
       id="path1293" />
    <path
       d="m 34.910105,64.75564 v 0 c -2.341686,-6.67318 -3.067384,-12.996381 -2.912634,-18.468223 -0.01289,0.455522 -0.01931,0.916594 -0.01931,1.383216 -5.05e-4,2.594276 0.200027,5.366337 0.67336,8.250869 v 0 c 0.46362,2.840087 1.200165,5.798198 2.258445,8.834138 v 0"
       style="fill:#e5d6d5;fill-opacity:1;fill-rule:nonzero;stroke:none;stroke-width:0.132346"
       id="path1295" />
    <path
       d="M 36.677183,69.087281 C 36.029931,67.70127 35.435777,66.258296 34.910105,64.75564 v 0 c -1.05828,-3.03594 -1.794825,-5.994051 -2.258445,-8.834138 1.226778,-0.248409 2.735307,-0.608306 4.409307,-1.119375 2.273203,2.785918 5.213329,5.384366 8.998468,7.245346 0.913871,0.448592 1.809078,0.822151 2.683471,1.129099 -0.432971,0.280689 -0.879816,0.558309 -1.340537,0.833291 -5.057569,3.006728 -8.585045,4.408013 -10.725186,5.077418"
       style="fill:#eb801a;fill-opacity:1;fill-rule:nonzero;stroke:none;stroke-width:0.132346"
       id="path1297" />
    <path
       d="m 32.65166,55.921502 c -0.473333,-2.884532 -0.673865,-5.656593 -0.673358,-8.250869 0,-0.466622 0.0064,-0.927694 0.0193,-1.383216 v 0 c 1.122223,2.644273 2.746534,5.676002 5.063499,8.51471 -1.674003,0.511069 -3.182532,0.870769 -4.409308,1.119375 v 0"
       style="fill:#ec3033;fill-opacity:1;fill-rule:nonzero;stroke:none;stroke-width:0.132346"
       id="path1299" />
    <path
       d="m 42.984231,79.269952 c -2.283416,-2.916501 -4.500368,-6.31903 -6.307048,-10.182671 2.140141,-0.669405 5.667617,-2.07069 10.725186,-5.077418 0.460721,-0.275179 0.907566,-0.552759 1.340537,-0.833291 2.414585,0.847148 4.674921,1.187401 6.746582,1.187401 2.08137,0 3.972806,-0.342892 5.640878,-0.858251 -1.710957,2.51511 -3.984658,5.3413 -6.905114,8.017499 -3.957039,3.637279 -8.210213,6.188486 -11.241021,7.746731"
       style="fill:#ec3033;fill-opacity:1;fill-rule:nonzero;stroke:none;stroke-width:0.132346"
       id="path1301" />
    <path
       d="m 42.492613,201.84918 c 0,0 4.729026,1.96223 4.729026,3.02604 0,1.0638 -6.686421,-0.57175 -6.686421,-0.57175 0,0 0.29766,4.08983 -3.119474,3.84417 -3.418125,-0.24486 -4.234883,-3.68029 -4.234883,-3.68029 0,0 -6.908644,2.86216 -9.731478,0.98185 -2.822964,-1.88349 3.194385,-3.19144 3.194385,-3.19144 0,0 -7.949141,-0.40858 -8.394979,-1.96223 -0.445329,-1.55434 8.048651,-2.37235 8.048651,-2.37235 l 16.195173,3.926"
       style="fill:url(#linearGradient3659);fill-opacity:1.0;fill-rule:nonzero;stroke:none;stroke-width:0.132346"
       id="path1303" />
    <path
       d="m 135.35271,219.19121 c 0,0 -5.89362,-0.84132 -6.78531,1.13436 -0.89166,1.9753 8.02256,2.3014 8.02256,2.3014 0,0 4.0119,5.23618 8.17136,5.39991 4.16072,0.16379 4.19101,-5.23618 4.19101,-5.23618 0,0 10.36963,4.25427 14.08517,2.78035 3.71425,-1.47071 -2.45939,-5.24548 -2.45939,-5.24548 0,0 7.21288,2.11416 7.21288,0 0,-2.11622 -11.04313,-3.42477 -11.04313,-3.42477 l -21.39515,2.29041"
       style="fill:url(#linearGradient3651);fill-opacity:1.0;fill-rule:nonzero;stroke:none;stroke-width:0.132346"
       id="path1305" />
    <path
       d="m 49.18534,118.59371 c 0,0 -20.715849,-19.451456 -21.931146,-23.097081 -1.21593,-3.645586 -0.517853,-8.039742 -0.08626,-12.646364 0.639432,-6.842617 1.904676,-6.66763 1.902152,-7.468953 -0.0043,-1.447109 -2.669724,-1.616547 -4.060963,0.981863 -1.391741,2.598451 -1.680432,6.491263 -1.680432,6.491263 0,0 -8.136808,-10.983995 -9.661107,-10.582643 -1.524295,0.40135 3.049601,9.163288 3.049601,9.163288 0,0 -8.4762008,-5.957952 -9.7847043,-4.963569 -1.3085035,0.994383 5.8088723,7.584222 5.8088723,7.584222 0,0 -6.8119105,-3.052593 -8.0376786,-2.458184 -1.2252617,0.594409 5.7635966,5.313545 5.7635966,5.313545 0,0 -5.2906426,0.318089 -5.2684458,1.831846 0.01211,0.822151 6.5399928,3.081724 7.6243818,3.642791 1.084261,0.559686 10.327527,5.370469 10.327527,5.370469 l 16.25634,38.097467 9.778272,-17.25996"
       style="fill:url(#linearGradient3210);fill-opacity:1;fill-rule:nonzero;stroke:none;stroke-width:0.132346"
       id="path1307" />
    <g
       id="g1309"
       transform="matrix(0.12612079,0,0,-0.13887968,-60.113088,295.60003)">
      <g
         id="g1311"
         clip-path="url(#clipPath1315)">
        <path
           d="m 1625.52,542.012 c -40.65,0 -75.73,8.187 -75.73,8.187 0,0 -59.56,127.321 -107.34,155.5 -17.95,10.539 -139.16,26 -257.66,36.031 -69.89,5.911 -138.84,9.93 -185.11,9.93 -24.043,0 -41.953,-1.09 -50.696,-3.551 -10.523,-3 -22.609,-7.961 -35.132,-13.929 -47.043,-22.43 -100.297,-59.11 -100.297,-59.11 0,0 -5.067,-0.488 -13.856,-0.488 -11.98,0 -30.886,0.91 -53.336,5.207 -34.683,6.59 -61.261,23.551 -61.261,23.551 0,0 -0.18,4.832 -0.457,13.512 -1.442,45.589 -5.481,197.597 0.457,316.348 4.738,94.76 103.714,311.31 194.144,465.05 0.008,0.02 0,0 0.008,0.01 44.461,75.59 86.859,136.01 114.969,159.31 8.897,7.33 19.357,15.18 31.037,23.31 v 0 c 18.63,12.96 40.39,26.65 63.96,40.2 15.37,8.84 31.5,17.63 48.03,26.14 -6.16,-70.23 30.58,-139.15 30.58,-139.15 0,0 39.97,71.46 132.9,111.23 52.25,22.35 102.93,27.24 137.3,27.24 26.75,0 43.62,-2.97 43.62,-2.97 0,0 0.01,0.03 0.02,0.09 24.04,-29.84 49.57,-67.25 74.92,-110.96 0,-0.01 -0.01,-0.01 -0.01,-0.01 l -0.29,-0.67 c -1.46,-3.84 -8.75,-23.74 -8.76,-50.91 0,-14.86 2.17,-31.89 8.67,-49.65 30.08,-82.35 99.68,-116.32 101.74,-117.31 24.66,-67.51 46,-140.96 61.49,-218.38 37.73,-188.67 33.79,-360.809 22.69,-477.141 -8.99,-94.309 -22.69,-151.938 -22.69,-151.938 -24.56,-19.332 -61.05,-24.679 -93.91,-24.679 m 73.54,113.636 c -3.9,0 -7.07,-14.148 -7.07,-31.609 0,-17.449 3.17,-31.609 7.07,-31.609 3.9,0 7.07,14.16 7.07,31.609 0,17.461 -3.17,31.609 -7.07,31.609 m 0.18,427.662 c -3.32,0 -6.65,-2.25 -6.84,-6.47 -1.94,-44.11 -4.27,-117.301 -3.55,-203.711 0.63,-76.5 2.7,-149.899 4.48,-201.348 0.15,-4.312 3.48,-6.543 6.8,-6.543 3.07,0 6.13,1.903 6.68,5.844 7.79,56.008 17.56,135.387 20.91,202.047 3.79,75.332 -10.94,156.561 -21.94,204.931 -0.81,3.56 -3.67,5.25 -6.54,5.25"
           style="fill:#c9334c;fill-opacity:1;fill-rule:nonzero;stroke:none"
           id="path1323" />
      </g>
    </g>
    <path
       d="m 126.79794,107.70137 c -2.26767,13.46025 -11.7078,22.82211 -21.08614,20.90558 -9.378348,-1.91515 -15.140806,-14.38102 -12.874407,-27.8426 2.267642,-13.460209 11.707787,-22.822106 21.086137,-20.905541 9.37707,1.915149 15.14206,14.380975 12.87441,27.842561"
       style="fill:url(#linearGradient3218);fill-opacity:1;fill-rule:nonzero;stroke:none;stroke-width:0.132346"
       id="path1325" />
    <path
       d="m 123.35988,107.76805 c -0.22576,1.11383 -0.51079,2.19986 -0.84374,3.247 -0.74916,2.42066 -1.7594,4.63304 -2.96006,6.56901 -2.35341,3.79699 -5.43202,6.53153 -8.73639,7.7481 -1.67614,0.61662 -3.41157,0.83885 -5.13438,0.60273 -0.34431,-0.0516 -0.68987,-0.1181 -1.03419,-0.19567 -7.916605,-1.94986 -12.373705,-13.16715 -9.96102,-25.03861 2.4127,-11.871412 10.78081,-19.920878 18.69742,-17.969629 7.92794,1.94987 12.38505,13.1533 9.97236,25.037239"
       style="fill:#bfe9ea;fill-opacity:1;fill-rule:nonzero;stroke:none;stroke-width:0.132346"
       id="path1327" />
    <path
       d="m 94.685052,100.70183 c -2.29666,11.31177 1.954875,21.98606 9.498158,23.84429 7.54329,1.85818 15.52044,-5.80658 17.81835,-17.11694 2.29792,-11.311726 -1.95487,-21.987434 -9.49816,-23.845617 -7.54329,-1.856845 -15.520415,5.806542 -17.818348,17.118267"
       style="fill:#ffffff;fill-opacity:1;fill-rule:nonzero;stroke:none;stroke-width:0.132346"
       id="path1329" />
    <g
       id="g1331"
       transform="matrix(0.12612079,0,0,-0.13887968,-60.113088,295.60003)">
      <g
         id="g1333"
         clip-path="url(#clipPath1337)">
        <path
           d="m 1448.05,1329.1 c -5.94,-17.43 -13.95,-33.36 -23.47,-47.3 -18.66,-27.34 -43.07,-47.03 -69.27,-55.79 -13.29,-4.44 -27.05,-6.04 -40.71,-4.34 -18.1,23.37 -18.95,63.05 0.19,99.04 l 0.56,1.05 c 4.81,8.76 10.37,16.77 16.68,23.65 25.45,28.55 60.89,40.05 87.55,25.54 15.18,-8.2 24.89,-23.47 28.47,-41.85"
           style="fill:url(#linearGradient3383);fill-opacity:1;fill-rule:nonzero;stroke:none"
           id="path1345" />
      </g>
    </g>
    <path
       d="m 119.55608,117.58406 c -2.35341,3.79699 -5.43202,6.53153 -8.73639,7.7481 -0.54611,-0.078 -1.05816,-0.261 -1.54499,-0.54858 -2.99536,-1.77906 -3.6247,-6.87037 -1.4138,-11.34787 2.19828,-4.47746 6.41702,-6.67593 9.40105,-4.88298 2.48457,1.48046 3.34093,5.23714 2.29413,9.03133"
       style="fill:#4c0e13;fill-opacity:1;fill-rule:nonzero;stroke:none;stroke-width:0.132346"
       id="path1347" />
    <path
       d="m 109.91162,114.24263 c -0.39098,1.60127 0.47295,3.24979 1.92712,3.67893 1.45418,0.43052 2.94997,-0.52084 3.34094,-2.1221 0.39099,-1.60128 -0.47169,-3.24979 -1.92712,-3.67893 -1.45417,-0.43053 -2.94997,0.52083 -3.34094,2.1221"
       style="fill:#ffffff;fill-opacity:1;fill-rule:nonzero;stroke:none;stroke-width:0.132346"
       id="path1349" />
    <path
       d="m 104.8277,109.82209 c -0.27368,1.12076 0.33044,2.27343 1.34822,2.57483 1.0178,0.30155 2.0646,-0.36375 2.33829,-1.48462 0.2724,-1.12075 -0.33171,-2.27347 -1.34949,-2.57484 -1.01655,-0.30155 -2.06335,0.36534 -2.33702,1.48463"
       style="fill:#ffffff;fill-opacity:1;fill-rule:nonzero;stroke:none;stroke-width:0.132346"
       id="path1351" />
    <path
       d="m 81.664344,104.58909 c -3.426698,13.10748 -12.682713,21.32079 -20.674349,18.34599 -7.991901,-2.97618 -11.693797,-16.01421 -8.268354,-29.121645 3.425944,-13.107478 12.68258,-21.32083 20.674231,-18.346028 7.992273,2.976182 11.693911,16.012835 8.268472,29.121683"
       style="fill:url(#linearGradient3226);fill-opacity:1;fill-rule:nonzero;stroke:none;stroke-width:0.132346"
       id="path1353" />
    <path
       d="m 81.35787,105.03906 c -0.316573,1.07773 -0.682311,2.12486 -1.085891,3.12618 -0.914377,2.31929 -2.034333,4.3997 -3.291768,6.18569 -2.464398,3.50119 -5.449675,5.86492 -8.467746,6.69542 -1.531101,0.418 -3.071796,0.44024 -4.553714,0.008 -0.295624,-0.0901 -0.589742,-0.19448 -0.882846,-0.31258 -6.710509,-2.84289 -9.403944,-14.49211 -6.021762,-26.003828 3.382559,-11.511756 11.560492,-18.546013 18.271376,-15.703131 6.720968,2.842842 9.416174,14.478212 6.032351,26.003829"
       style="fill:#bfe9ea;fill-opacity:1;fill-rule:nonzero;stroke:none;stroke-width:0.132346"
       id="path1355" />
    <path
       d="m 57.050232,94.738373 c -3.221505,10.970097 -0.649395,22.056847 5.745305,24.765007 6.394206,2.70817 14.189723,-3.98721 17.410856,-14.95594 3.222377,-10.970133 0.649519,-22.056877 -5.744811,-24.765043 -6.394328,-2.709544 -14.189845,3.987255 -17.41135,14.955976"
       style="fill:#ffffff;fill-opacity:1;fill-rule:nonzero;stroke:none;stroke-width:0.132346"
       id="path1357" />
    <g
       id="g1359"
       transform="matrix(0.12612079,0,0,-0.13887968,-60.113088,295.60003)">
      <g
         id="g1361"
         clip-path="url(#clipPath1365)">
        <path
           d="m 1113.1,1349.62 c -7.25,-16.7 -16.13,-31.68 -26.1,-44.54 -19.54,-25.21 -43.21,-42.23 -67.14,-48.21 -12.14,-3.01 -24.356,-3.17 -36.106,-0.06 -13.055,25.08 -9.109,64.58 11.867,98.34 l 0.613,0.96 c 5.236,8.21 11.046,15.58 17.376,21.76 25.62,25.7 57.95,33.44 79.55,16.26 12.3,-9.73 18.98,-25.89 19.94,-44.51"
           style="fill:url(#linearGradient3385);fill-opacity:1;fill-rule:nonzero;stroke:none"
           id="path1373" />
      </g>
    </g>
    <path
       d="m 76.980211,114.35093 c -2.464398,3.50119 -5.449675,5.86492 -8.467746,6.69542 -0.470422,-0.14172 -0.896713,-0.38187 -1.292743,-0.72357 -2.426935,-2.11096 -2.43135,-7.23842 -0.01888,-11.4298 2.402603,-4.19417 6.32621,-5.89543 8.742686,-3.77199 2.012896,1.75267 2.358455,5.58018 1.036709,9.22994"
       style="fill:#4c0e13;fill-opacity:1;fill-rule:nonzero;stroke:none;stroke-width:0.132346"
       id="path1375" />
    <path
       d="m 68.907222,109.92902 c -0.51204,1.54572 0.06433,3.28033 1.290227,3.87336 1.225884,0.59299 2.635913,-0.17794 3.147967,-1.72488 0.513314,-1.54573 -0.06307,-3.28033 -1.288954,-3.87475 -1.225899,-0.59165 -2.635926,0.17912 -3.14924,1.72627"
       style="fill:#ffffff;fill-opacity:1;fill-rule:nonzero;stroke:none;stroke-width:0.132346"
       id="path1377" />
    <path
       d="m 64.9377,104.95852 c -0.359192,1.08048 0.04476,2.29429 0.90252,2.70954 0.857364,0.41525 1.843634,-0.12519 2.20308,-1.20547 0.358174,-1.08327 -0.04546,-2.29709 -0.90302,-2.71234 -0.857626,-0.41387 -1.844019,0.1252 -2.20258,1.20827"
       style="fill:#ffffff;fill-opacity:1;fill-rule:nonzero;stroke:none;stroke-width:0.132346"
       id="path1379" />
    <path
       d="m 108.83203,166.19724 c -0.16649,-0.6011 -1.93722,-5.6534 -16.03501,-11.16429 -15.03612,-5.87599 -28.978139,-4.75106 -28.978139,-4.75106 0,0 0.226125,-3.23172 1.105451,-7.47312 1.937216,-9.26605 7.048898,-23.34983 20.00402,-18.86123 14.181022,4.92187 20.563998,26.36213 22.845528,36.70157 0.61798,2.77332 0.93958,4.73706 1.03418,5.39299 l 0.0239,0.15511"
       style="fill:#4c0e13;fill-opacity:1;fill-rule:nonzero;stroke:none;stroke-width:0.132346"
       id="path1381" />
    <path
       d="m 108.83203,166.19724 c -0.16649,-0.6011 -1.93722,-5.6534 -16.03501,-11.16429 -15.03612,-5.87599 -28.978139,-4.75106 -28.978139,-4.75106 l 0.400939,-3.46367 c 0,0 10.583547,-4.45108 22.105946,-1.35546 12.786125,3.43591 21.448114,15.18635 21.448114,15.18635 l 1.03418,5.39299 0.0239,0.15511"
       style="fill:#83142e;fill-opacity:1;fill-rule:nonzero;stroke:none;stroke-width:0.132346"
       id="path1383" />
    <path
       d="m 96.51003,134.69264 -2.282788,1.92213 -4.753493,4.01913 -1.224642,-12.25056 -0.15382,-1.59709 -1.855239,0.36651 -3.94506,0.77218 -1.034192,-2.18599 -0.155078,-0.31376 -0.392239,0.28739 -3.019328,2.21236 -0.59403,-1.68878 -0.451518,-1.25547 -0.903021,1.80543 -5.681742,11.34783 v -8.02304 c 0,0 3.019328,-6.27041 9.711293,-6.27041 4.991866,0 8.902875,2.2387 11.683831,4.68579 l 0.02391,0.0276 c 0.760509,0.66803 1.437771,1.34716 2.02046,2.00267 1.996492,2.22623 3.006714,4.1372 3.006714,4.1372"
       style="fill:#ffffff;fill-opacity:1;fill-rule:nonzero;stroke:none;stroke-width:0.132346"
       id="path1385" />
    <path
       d="m 62.339358,150.12498 -2.525313,-17.01415 13.618394,17.83352 z"
       style="fill:#ffffff;fill-opacity:1;fill-rule:nonzero;stroke:none;stroke-width:0.132346"
       id="path1387" />
    <path
       d="M 90.977106,154.07608 110.92438,140.6367 103.4946,162.39651 Z"
       style="fill:#ffffff;fill-opacity:1;fill-rule:nonzero;stroke:none;stroke-width:0.132346"
       id="path1389" />
    <path
       d="m 56.099785,152.59145 6.060738,-3.6692 c 0,0 8.550224,-2.18458 21.945524,1.12076 26.173843,6.46347 28.525993,24.29715 28.525993,24.29715 0,0 -6.53684,-16.68778 -29.938552,-20.86123 -14.208767,-2.53181 -21.765545,1.0652 -21.765545,1.0652 l -4.828158,-1.95268"
       style="fill:#4c0e13;fill-opacity:1;fill-rule:nonzero;stroke:none;stroke-width:0.132346"
       id="path1391" />
    <path
       d="m 96.51003,134.69264 -2.282788,1.92213 c -0.474214,-1.38744 -2.161714,-5.45661 -5.978135,-8.23143 l -0.15382,-1.59709 -1.855239,0.36651 c -0.93833,-0.47217 -1.961182,-0.86384 -3.101302,-1.12631 -0.654566,-0.15708 -1.283921,-0.24723 -1.87795,-0.28738 l -0.155078,-0.31376 -0.392239,0.28738 c -1.331844,-0.0393 -2.531242,0.17086 -3.613358,0.52359 l -0.451518,-1.25547 -0.903021,1.80544 c -3.792452,1.85818 -5.681742,5.45793 -5.681742,5.45793 v -2.13316 c 0,0 3.019328,-6.27041 9.711293,-6.27041 4.991866,0 8.902875,2.23871 11.683831,4.68579 l 0.02391,0.0275 c 0.688617,0.65412 1.378508,1.33601 2.02046,2.00266 1.996492,2.22623 3.006714,4.1372 3.006714,4.1372"
       style="fill:#c9334f;fill-opacity:1;fill-rule:nonzero;stroke:none;stroke-width:0.132346"
       id="path1393" />
    <path
       d="m 65.395391,140.42006 -1.109481,-1.4527 c 0,0 2.745894,-17.92101 15.32518,-17.92101 17.02253,0 25.08418,23.59702 25.08418,23.59702 l -1.41508,1.14299 c 0,0 -9.244656,-23.49151 -23.553059,-22.67629 -11.796081,0.6722 -14.33174,17.30999 -14.33174,17.30999"
       style="fill:url(#linearGradient3242);fill-opacity:1;fill-rule:nonzero;stroke:none;stroke-width:0.132346"
       id="path1395" />
    <path
       d="m 129.42629,79.61851 c 0,0 -2.56908,-5.832919 -8.11461,-11.054817 -5.54552,-5.221857 -8.41353,-5.823194 -8.41353,-5.823194 l 7.51555,-0.08188 -2.3963,-3.009525 c 0,0 6.82819,0.404147 10.60802,5.605179 3.77985,5.201071 3.50365,13.1172 3.50365,13.1172 l -2.24875,-3.176167 -0.45403,4.423289"
       style="fill:#4c0e13;fill-opacity:1;fill-rule:nonzero;stroke:none;stroke-width:0.132346"
       id="path1397" />
    <path
       d="m 172.99094,59.140737 c -0.0214,0.275179 -0.0464,0.551341 -0.0704,0.838803 -0.35679,3.873364 -1.18932,8.009192 -2.69902,12.28946 -0.51076,1.440218 -1.06947,2.827606 -1.69883,4.163619 -1.50969,3.27061 -3.317,6.216281 -5.20627,8.807762 -6.62134,9.068846 -14.32355,13.965726 -14.32355,13.965726 0,0 -8.98609,-4.685792 -12.83656,-16.294745 -2.3181,-6.977292 -0.27368,-13.140781 0.011,-13.965725 l 0.0367,-0.0929 c 0.34432,-0.261006 0.67726,-0.536066 1.01023,-0.798568 1.30787,-1.033238 2.54386,-2.053999 3.73191,-3.062278 1.35454,-1.138822 2.63845,-2.263747 3.85173,-3.363673 3.74326,-3.39005 6.81053,-6.531496 9.35438,-9.385479 1.12875,-1.269366 2.15033,-2.485938 3.07861,-3.637279 7.53572,-9.306311 8.98609,-14.540688 10.66098,-13.3116 1.61686,1.177697 4.56429,7.539775 5.15959,16.557251 0.14123,2.277605 0.14123,4.712167 -0.0604,7.289792"
       style="fill:#f79021;fill-opacity:1;fill-rule:nonzero;stroke:none;stroke-width:0.132346"
       id="path1399" />
    <g
       id="g1401"
       transform="matrix(0.12612079,0,0,-0.13887968,-60.113088,295.60003)">
      <g
         id="g1403"
         clip-path="url(#clipPath1407)">
        <path
           d="m 1657.66,1286.91 c 0,0 199.48,82.46 216.76,104.46 17.28,21.99 22.38,59.25 33.63,90.64 11.19,31.22 -1.63,48.36 1.99,52.85 6.55,8.12 19.9,-2.58 24.62,-23.79 4.71,-21.2 -2.52,-42.73 -2.52,-42.73 0,0 95.98,60.61 106.58,54.12 10.6,-6.47 -53.56,-60.6 -53.56,-60.6 0,0 93.02,28.21 100.68,18.19 7.66,-10.01 -76.53,-45.88 -76.53,-45.88 0,0 82.74,4.26 90.67,-2.81 7.92,-7.07 -80.9,-27.88 -80.9,-27.88 0,0 53.02,-9.38 49.48,-19.68 -1.92,-5.61 -68.98,-5.29 -78.4,-6.47 -9.42,-1.18 -89.82,-11.48 -89.82,-11.48 L 1693,1144.77 c 0,0 -37.24,9.57 -52.06,62.6 -14.92,53.41 16.72,79.54 16.72,79.54"
           style="fill:url(#linearGradient3194);fill-opacity:1;fill-rule:nonzero;stroke:none"
           id="path1415" />
      </g>
    </g>
    <path
       d="m 135.34767,219.18857 c 0,0 -7.51176,-17.6823 -13.53782,-21.59577 -4.29189,-2.77496 -55.413687,-8.01061 -62.236319,-5.88988 -6.311462,1.97624 -17.080415,10.14362 -17.080415,10.14362 0,0 -3.565939,0.38028 -8.474306,-0.65541 -4.374251,-0.9152 -7.726287,-3.2707 -7.726287,-3.2707 0,0 -0.891802,-26.17886 0,-45.81087 0.891167,-19.63204 28.229366,-76.894891 38.986586,-86.712309 2.911751,-2.642896 7.143107,-5.757965 11.981107,-8.820241 l 9.06934,-2.474837 0.843742,18.166827 c 0,0 -14.584601,-2.591484 -22.892813,1.715199 -8.296478,4.305266 -21.489847,34.031051 -22.084508,65.220671 -0.594157,31.20222 10.769077,40.36396 34.897743,44.06916 24.14079,3.70419 40.78117,5.8889 48.10373,11.34799 7.33394,5.44391 10.15022,24.56655 10.15022,24.56655"
       style="fill:#ac3342;fill-opacity:1;fill-rule:nonzero;stroke:none;stroke-width:0.132346"
       id="path1417" />
    <path
       d="m 86.296763,56.678381 c 0,0 -5.225189,1.988766 -10.176682,4.334436 -4.072442,1.929046 -8.568657,5.235755 -8.568657,5.235755 l 2.13018,-3.598343 -2.657365,0.547167 c 0,0 1.954876,-5.041318 6.866025,-7.856406 6.066401,-3.47477 13.284293,-2.980393 13.284293,-2.980393 l -3.950094,2.92205 3.0723,1.395734"
       style="fill:#4c0e13;fill-opacity:1;fill-rule:nonzero;stroke:none;stroke-width:0.132346"
       id="path1419" />
    <path
       d="m 126.7538,53.453594 c 0,0 -11.09738,-2.149855 -22.81778,3.370603 -11.720415,5.523256 -16.761463,15.447598 -16.761463,15.447598 0,0 -8.279828,-17.103039 -0.848791,-28.882807 3.794984,-6.016265 9.257274,-5.801 9.257274,-5.801 l -9.582655,-3.353947 c 0,0 7.840924,-5.235762 17.680875,-2.781761 6.021,1.50268 7.65049,4.008069 7.65049,4.008069 l -4.66144,-9.653527 c 0,0 13.81149,1.156868 19.07451,9.981286 3.78868,6.352353 1.00898,17.665486 1.00898,17.665486"
       style="fill:#382f4c;fill-opacity:1;fill-rule:nonzero;stroke:none;stroke-width:0.132346"
       id="path1421" />
    <path
       d="m 87.808945,61.386415 c 0,0 -0.498168,-6.214864 2.675026,-11.465932 3.551563,-5.877365 8.245777,-6.857859 8.245777,-6.857859 l -8.394594,0.899948 c 0,0 4.40666,-4.446937 13.772396,-4.446937 1.08715,0 2.24115,0.05973 3.462,0.193058 11.59304,1.266585 16.44616,9.652103 16.44616,9.652103 l -4.11406,-2.20816 1.85777,3.598383 c 0,0 -4.50001,-1.956839 -11.13521,-1.956839 -2.08605,0 -4.38397,0.194475 -6.81809,0.702749 -10.177957,2.127614 -15.997175,11.889486 -15.997175,11.889486"
       style="fill:#594b72;fill-opacity:1;fill-rule:nonzero;stroke:none;stroke-width:0.132346"
       id="path1423" />
    <g
       id="g1425"
       transform="matrix(0.12612079,0,0,-0.13887968,-60.113088,295.60003)">
      <g
         id="g1427"
         clip-path="url(#clipPath1431)">
        <path
           d="m 1700.13,665.238 c -3.32,0 -6.65,2.231 -6.8,6.543 -1.78,51.449 -3.85,124.848 -4.48,201.348 -0.72,86.41 1.61,159.601 3.55,203.711 0.19,4.22 3.52,6.47 6.84,6.47 2.87,0 5.73,-1.69 6.54,-5.25 11,-48.37 25.73,-129.599 21.94,-204.931 -3.35,-66.66 -13.12,-146.039 -20.91,-202.047 -0.55,-3.941 -3.61,-5.844 -6.68,-5.844"
           style="fill:#eb334d;fill-opacity:1;fill-rule:nonzero;stroke:none"
           id="path1439" />
      </g>
    </g>
    <g
       id="g1441"
       transform="matrix(0.12612079,0,0,-0.13887968,-60.113088,295.60003)">
      <g
         id="g1443"
         clip-path="url(#clipPath1447)">
        <path
           d="m 1699.06,592.43 c -3.9,0 -7.07,14.16 -7.07,31.609 0,17.461 3.17,31.609 7.07,31.609 3.9,0 7.07,-14.148 7.07,-31.609 0,-17.449 -3.17,-31.609 -7.07,-31.609"
           style="fill:#eb334d;fill-opacity:1;fill-rule:nonzero;stroke:none"
           id="path1455" />
      </g>
    </g>
    <path
       d="m 67.720421,159.93251 c 0,0 7.509237,-2.4093 18.107177,1.34326 10.599183,3.75348 13.025756,7.38281 13.025756,7.38281 l -31.132933,-8.72607"
       style="fill:url(#linearGradient3234);fill-opacity:1;fill-rule:nonzero;stroke:none;stroke-width:0.132346"
       id="path1457" />
    <path
       d="m 168.52248,76.432619 c -1.50968,3.27061 -3.317,6.216281 -5.20628,8.807762 -1.80731,-0.472212 -6.02729,-2.055414 -12.26648,-7.330064 -8.51065,-7.199523 -10.10357,-12.918591 -10.10357,-12.918591 1.35455,-1.138822 2.63845,-2.263746 3.85174,-3.363674 1.53362,2.277644 5.24033,7.264793 10.51847,10.640948 4.96789,3.194235 10.4365,3.980324 13.20612,4.163619"
       style="fill:#f0373b;fill-opacity:1;fill-rule:nonzero;stroke:none;stroke-width:0.132346"
       id="path1459" />
    <path
       d="m 172.99094,59.140737 c -2.23485,0.329113 -5.47995,0.366511 -9.35438,-0.86384 -4.75349,-1.517971 -7.85609,-4.227514 -9.48428,-6.034323 1.12875,-1.269365 2.15033,-2.485937 3.07861,-3.637278 1.521,0.902735 3.85046,1.962388 7.29734,2.801229 3.67263,0.890218 6.50152,0.824947 8.52323,0.44442 0.14123,2.277605 0.14123,4.712169 -0.0604,7.289792"
       style="fill:#f0373b;fill-opacity:1;fill-rule:nonzero;stroke:none;stroke-width:0.132346"
       id="path1461" />
    <path
       d="m 148.99265,99.206107 c 0,0 -0.001,-0.0014 -0.003,-0.0028 -0.2599,-0.137399 -9.0378,-4.855228 -12.83151,-16.291988 -0.81979,-2.466489 -1.09347,-4.831608 -1.09347,-6.895369 0.001,-3.773372 0.92068,-6.537085 1.10482,-7.070357 l 1.04681,-0.891633 c 0,0 1.58407,0.430561 4.09387,0.843014 -0.0932,0.519415 0.28001,1.081857 0.78826,1.081857 0.11356,0 0.23331,-0.02755 0.35693,-0.09015 0.26484,-0.136214 0.53728,-0.277935 0.81348,-0.426349 1.51345,2.2554 3.94379,5.201032 7.78292,8.448061 6.2354,5.270476 10.45288,6.856473 12.2627,7.328686 -6.54693,8.968853 -14.14949,13.858804 -14.31597,13.965725 -0.001,0 -0.001,0 -0.001,0 h -0.001 c 0,0.0014 0,0.0014 0,0.0014 v 0 c -0.001,0 -0.001,0 -0.001,0"
       style="fill:#eb801a;fill-opacity:1;fill-rule:nonzero;stroke:none;stroke-width:0.132346"
       id="path1463" />
    <path
       d="m 165.88404,81.386464 c 0.9421,-1.555448 1.83251,-3.208134 2.63844,-4.953845 v 0 0 c 0.62936,-1.336013 1.18807,-2.723401 1.69884,-4.163619 1.50969,-4.280268 2.34207,-8.416096 2.69902,-12.28946 v 0 c -0.35681,3.873364 -1.18933,8.009192 -2.69902,12.28946 -1.16662,3.327573 -2.66997,6.371819 -4.33728,9.117464"
       style="fill:#e5d6d5;fill-opacity:1;fill-rule:nonzero;stroke:none;stroke-width:0.132346"
       id="path1465" />
    <path
       d="m 168.52248,76.432619 c -2.76962,-0.183452 -8.23823,-0.969384 -13.20612,-4.163619 -1.27508,-0.815223 -2.45808,-1.724887 -3.54147,-2.667855 3.62723,-0.141722 7.46636,-0.751328 10.92333,-2.240127 4.9805,-2.147102 8.21298,-4.960773 10.22212,-7.381478 -0.35681,3.873364 -1.18933,8.009192 -2.69902,12.28946 -0.51077,1.440218 -1.06948,2.827606 -1.69884,4.163619 v 0"
       style="fill:#eb801a;fill-opacity:1;fill-rule:nonzero;stroke:none;stroke-width:0.132346"
       id="path1467" />
    <path
       d="m 163.31241,85.239003 c -1.80981,-0.472212 -6.02729,-2.058209 -12.26269,-7.328686 -3.83913,-3.247028 -6.26948,-6.19266 -7.78293,-8.448062 0.13746,-0.07362 0.27622,-0.149987 0.41619,-0.226361 1.87921,0.227937 4.051,0.398595 6.3527,0.398595 0.57259,0 1.15275,-0.01186 1.73921,-0.03149 1.08339,0.942969 2.26639,1.852633 3.54147,2.667855 4.96789,3.194236 10.4365,3.980325 13.20612,4.163622 v 0 c -0.80593,1.74571 -1.69634,3.398393 -2.63844,4.953842 -0.82484,1.358258 -1.68876,2.642896 -2.57163,3.852539"
       style="fill:#ec3033;fill-opacity:1;fill-rule:nonzero;stroke:none;stroke-width:0.132346"
       id="path1469" />
    <path
       d="m 143.065,69.156725 c -0.62431,-0.08345 -1.21203,-0.170856 -1.75687,-0.259824 0.034,-0.19172 0.13244,-0.376355 0.30901,-0.526344 0.20685,-0.176367 0.4187,-0.358244 0.63564,-0.543035 0.23205,0.406941 0.5007,0.851321 0.81222,1.329084 m 5.32229,-2.91508 c -0.70376,-0.787469 -1.32933,-1.547142 -1.87038,-2.2443 2.2046,-2.073485 4.5391,-4.424708 6.71594,-6.91899 0.92447,-1.061033 1.81238,-2.109584 2.6561,-3.134516 0.69117,0.59996 1.50084,1.22354 2.43286,1.826256 -1.04932,1.511042 -2.23988,3.069245 -3.58686,4.637213 -2.00405,2.333191 -4.20107,4.260818 -6.34766,5.834337 m 13.15693,-15.698958 c -0.84376,-0.287382 -1.59167,-0.583309 -2.25377,-0.879114 0.95977,-1.251296 1.82622,-2.417912 2.58672,-3.466424 0.17517,-0.241716 0.39729,-0.344466 0.61548,-0.344466 0.53851,0 1.04806,0.624958 0.73778,1.30822 -0.47169,1.03883 -1.0304,2.174856 -1.68621,3.381745"
       style="fill:#fcd69a;fill-opacity:1;fill-rule:nonzero;stroke:none;stroke-width:0.132346"
       id="path1471" />
    <path
       d="m 143.68298,69.235894 c -0.20935,-0.02757 -0.41494,-0.05275 -0.61798,-0.07913 -0.31154,-0.477764 -0.58016,-0.922143 -0.81222,-1.329086 1.3003,-1.117958 2.75194,-2.408186 4.26413,-3.830297 0.54105,0.697158 1.16662,1.456834 1.87038,2.2443 -1.632,1.194369 -3.235,2.184578 -4.70431,2.994249"
       style="fill:#f9a8ae;fill-opacity:1;fill-rule:nonzero;stroke:none;stroke-width:0.132346"
       id="path1473" />
    <path
       d="m 158.32181,55.770096 c -0.93202,-0.602717 -1.74169,-1.226298 -2.43286,-1.826257 1.22968,-1.49435 2.36981,-2.935909 3.4015,-4.280267 0.6621,0.295649 1.41001,0.591614 2.25377,0.879114 -0.88663,1.633239 -1.9511,3.395601 -3.22241,5.22741"
       style="fill:#f9a8ae;fill-opacity:1;fill-rule:nonzero;stroke:none;stroke-width:0.132346"
       id="path1475" />
    <path
       d="m 142.09639,69.978875 c -0.50828,0 -0.88158,-0.562442 -0.78826,-1.081858 0.54484,0.08897 1.13256,0.176367 1.75687,0.259827 0.0656,0.100002 0.13243,0.20156 0.20178,0.30549 -0.27622,0.148419 -0.54863,0.29014 -0.81349,0.426351 -0.12362,0.06259 -0.24341,0.09015 -0.35693,0.09015"
       style="fill:#f5cf9a;fill-opacity:1;fill-rule:nonzero;stroke:none;stroke-width:0.132346"
       id="path1477" />
    <path
       d="m 143.26679,69.462255 c -0.0693,-0.104321 -0.1362,-0.205497 -0.20178,-0.30549 0.20307,0.02755 0.40863,0.05275 0.61799,0.07913 -0.13998,0.07637 -0.27871,0.152743 -0.41619,0.226363"
       style="fill:#f7a8ac;fill-opacity:1;fill-rule:nonzero;stroke:none;stroke-width:0.132346"
       id="path1479" />
    <path
       d="m 55.406625,57.853302 c -1.820301,-1.25409 -3.75449,-2.781743 -5.68275,-4.627448 -0.961168,-0.920804 -1.843506,-1.916565 -2.651563,-2.953976 0.997613,-0.661098 1.877558,-1.337431 2.648535,-1.995695 0.423768,0.499966 0.857243,0.998516 1.299675,1.492932 2.065734,2.31095 4.184691,4.416401 6.141452,6.235687 -0.512806,0.579136 -1.09662,1.199921 -1.755349,1.8485 M 43.372431,44.386127 c -0.746888,-1.462384 -1.375471,-2.895623 -1.897236,-4.220534 -0.285149,-0.722174 0.252757,-1.337413 0.811968,-1.337413 0.244785,0 0.49414,0.118064 0.679411,0.397198 0.848287,1.280471 1.826733,2.695653 2.915029,4.177506 -0.756723,0.345647 -1.594291,0.681885 -2.509172,0.983243"
       style="fill:#fcd69a;fill-opacity:1;fill-rule:nonzero;stroke:none;stroke-width:0.132346"
       id="path1481" />
    <path
       d="m 47.072312,50.271878 c -1.469058,-1.886018 -2.692301,-3.91226 -3.699881,-5.885751 0.914881,-0.301555 1.752449,-0.637439 2.509172,-0.983243 1.162203,1.580447 2.449518,3.234511 3.839244,4.873299 -0.770977,0.658264 -1.650922,1.334597 -2.648535,1.995695"
       style="fill:#f9a8ae;fill-opacity:1;fill-rule:nonzero;stroke:none;stroke-width:0.132346"
       id="path1483" />
    <path
       d="m 59.415882,60.20732 c -0.129033,0 -0.265987,-0.03543 -0.405857,-0.112588 -1.118442,-0.623542 -2.333235,-1.366563 -3.6034,-2.241504 0.658729,-0.64858 1.242543,-1.269365 1.755349,-1.8485 0.970122,0.901357 1.900265,1.731853 2.764317,2.481804 0.699085,0.605511 0.222228,1.720712 -0.510409,1.720712"
       style="fill:#f9a8ae;fill-opacity:1;fill-rule:nonzero;stroke:none;stroke-width:0.132346"
       id="path1485" />
  </g>
</svg>
