<?xml version="1.0" encoding="iso-8859-1"?>
<!-- Generator: Adobe Illustrator 19.0.0, SVG Export Plug-In . SVG Version: 6.00 Build 0)  -->
<svg version="1.1" id="Layer_1" xmlns="http://www.w3.org/2000/svg" xmlns:xlink="http://www.w3.org/1999/xlink" x="0px" y="0px"
	 viewBox="0 0 512.001 512.001" style="enable-background:new 0 0 512.001 512.001;" xml:space="preserve">
<g>
	<g>
		<path d="M133.566,244.87v267.13h244.87V244.87H133.566z M328.348,445.218H183.653c-9.217,0-16.696-7.479-16.696-16.696
			s7.479-16.696,16.696-16.696h144.696c9.217,0,16.696,7.479,16.696,16.696S337.565,445.218,328.348,445.218z M328.348,378.436
			H183.653c-9.217,0-16.696-7.479-16.696-16.696s7.479-16.696,16.696-16.696h144.696c9.217,0,16.696,7.479,16.696,16.696
			S337.565,378.436,328.348,378.436z M328.348,311.653H183.653c-9.217,0-16.696-7.479-16.696-16.696
			c0-9.217,7.479-16.696,16.696-16.696h144.696c9.217,0,16.696,7.479,16.696,16.696
			C345.044,304.174,337.565,311.653,328.348,311.653z"/>
	</g>
</g>
<g>
	<g>
		<path d="M500.478,78.729L261.174,0.816c-3.369-1.087-6.979-1.087-10.348,0L11.522,78.729C4.653,80.968,0,87.381,0,94.61v50.087
			c0,9.217,7.479,16.696,16.696,16.696h16.696v333.913c0,9.217,7.479,16.696,16.696,16.696h50.087V228.175
			c0-9.217,7.479-16.696,16.696-16.696h278.261c9.217,0,16.696,7.479,16.696,16.696v283.826h50.087
			c9.217,0,16.696-7.478,16.696-16.696V161.392h16.696c9.217,0,16.696-7.479,16.696-16.696V94.61
			C512,87.381,507.348,80.968,500.478,78.729z M150.261,178.088H116.87c-9.22,0-16.696-7.475-16.696-16.696
			s7.475-16.696,16.696-16.696h33.391c9.22,0,16.696,7.475,16.696,16.696S159.482,178.088,150.261,178.088z M272.696,178.088
			h-33.391c-9.22,0-16.696-7.475-16.696-16.696s7.475-16.696,16.696-16.696h33.391c9.22,0,16.696,7.475,16.696,16.696
			S281.916,178.088,272.696,178.088z M395.131,178.088H361.74c-9.22,0-16.696-7.475-16.696-16.696s7.475-16.696,16.696-16.696
			h33.391c9.22,0,16.696,7.475,16.696,16.696S404.351,178.088,395.131,178.088z"/>
	</g>
</g>
<g>
</g>
<g>
</g>
<g>
</g>
<g>
</g>
<g>
</g>
<g>
</g>
<g>
</g>
<g>
</g>
<g>
</g>
<g>
</g>
<g>
</g>
<g>
</g>
<g>
</g>
<g>
</g>
<g>
</g>
</svg>
