<?xml version="1.0" encoding="iso-8859-1"?>
<!-- Generator: Adobe Illustrator 19.0.0, SVG Export Plug-In . SVG Version: 6.00 Build 0)  -->
<svg version="1.1" id="Layer_1" xmlns="http://www.w3.org/2000/svg" xmlns:xlink="http://www.w3.org/1999/xlink" x="0px" y="0px"
	 viewBox="0 0 502 502" style="enable-background:new 0 0 502 502;" xml:space="preserve">
<g>
	<g>
		<g>
			<path d="M214.15,73.847c-57.789,0-104.803,47.015-104.803,104.803c0,57.789,47.015,104.804,104.803,104.804
				c57.789,0,104.804-47.015,104.804-104.804S271.939,73.847,214.15,73.847z M214.15,263.454c-46.761,0-84.803-38.043-84.803-84.804
				c0-46.761,38.042-84.803,84.803-84.803c46.761,0,84.804,38.042,84.804,84.803C298.954,225.411,260.911,263.454,214.15,263.454z"
				/>
			<path d="M125.153,90.081c2.39,0,4.788-0.852,6.701-2.58c22.593-20.412,51.819-31.654,82.296-31.654
				c17.038,0,33.525,3.42,49.006,10.165c5.063,2.206,10.957-0.11,13.162-5.173c2.206-5.063-0.11-10.956-5.173-13.162
				c-18.016-7.85-37.192-11.83-56.995-11.83c-35.44,0-69.428,13.074-95.704,36.814c-4.098,3.702-4.418,10.026-0.716,14.124
				C119.704,88.97,122.423,90.081,125.153,90.081z"/>
			<path d="M101.143,108.146c-4.889-2.567-10.935-0.685-13.502,4.205c-10.659,20.3-16.293,43.226-16.293,66.299
				c0,5.523,4.477,10,10,10s10-4.477,10-10c0-19.847,4.841-39.558,14-57.001C107.915,116.759,106.032,110.713,101.143,108.146z"/>
			<path d="M466.486,360.732c-0.012-0.436-0.044-0.892-0.114-1.324l-10-62c-0.782-4.846-4.964-8.408-9.873-8.408h-89.722
				c23.905-47.183,36.022-84.27,36.022-110.35C392.8,80.142,312.658,0,214.15,0S35.5,80.142,35.5,178.65
				c0,95.435,163.74,310.329,170.711,319.431c1.892,2.471,4.827,3.919,7.939,3.919s6.047-1.449,7.939-3.919
				c0.275-0.359,23.494-30.74,52.411-73.167V490c0,5.523,4.477,10,10,10h172c5.523,0,10-4.477,10-10V361
				C466.5,360.909,466.489,360.822,466.486,360.732z M437.984,309l6.774,42H296.242l6.774-42H437.984z M284.627,297.408l-10,62
				c-0.084,0.519-0.127,1.066-0.127,1.592v27.973c-25.148,38.247-48.572,70.481-60.35,86.36
				c-14.172-19.112-45.222-61.928-75.95-110.545C84.097,279.187,55.5,214.821,55.5,178.65C55.5,91.17,126.67,20,214.15,20
				S372.8,91.17,372.8,178.65c0,24.519-12.964,61.638-38.522,110.35H294.5C289.592,289,285.409,292.562,284.627,297.408z M387.5,480
				h-34v-68h34V480z M446.5,480h-39v-78c0-5.523-4.477-10-10-10h-54c-5.523,0-10,4.477-10,10v78h-39V371h152V480z"/>
		</g>
	</g>
</g>
<g>
</g>
<g>
</g>
<g>
</g>
<g>
</g>
<g>
</g>
<g>
</g>
<g>
</g>
<g>
</g>
<g>
</g>
<g>
</g>
<g>
</g>
<g>
</g>
<g>
</g>
<g>
</g>
<g>
</g>
</svg>
