<?xml version="1.0" encoding="iso-8859-1"?>
<!-- Generator: Adobe Illustrator 19.0.0, SVG Export Plug-In . SVG Version: 6.00 Build 0)  -->
<svg version="1.1" id="Layer_1" xmlns="http://www.w3.org/2000/svg" xmlns:xlink="http://www.w3.org/1999/xlink" x="0px" y="0px"
	 viewBox="0 0 335.524 335.524" style="enable-background:new 0 0 335.524 335.524;" xml:space="preserve">
<g>
	<g>
		<g>
			<path d="M300.255,11.306V10.31c0-4.971-4.029-9-9-9c-4.753,0-8.635,3.686-8.967,8.354h-17.349
				c-0.332-4.668-4.214-8.354-8.967-8.354c-4.753,0-8.635,3.686-8.967,8.354h-17.349c-0.332-4.668-4.214-8.354-8.967-8.354
				s-8.635,3.686-8.967,8.354h-17.349c-0.332-4.668-4.214-8.354-8.967-8.354s-8.635,3.686-8.967,8.354h-17.35
				c-0.332-4.668-4.214-8.354-8.967-8.354s-8.635,3.686-8.967,8.354h-17.349c-0.332-4.668-4.214-8.354-8.967-8.354
				c-4.753,0-8.635,3.686-8.967,8.354H88.52c-0.332-4.668-4.214-8.354-8.967-8.354c-4.753,0-8.635,3.686-8.967,8.354h-17.35
				c-0.332-4.668-4.214-8.354-8.967-8.354c-4.971,0-9,4.029-9,9v0.997C14.979,16.774,0,35.326,0,57.318v193.813
				c0,18.181,14.791,32.972,32.971,32.972h62.754c10.881,29.23,39.063,50.112,72.037,50.112s61.156-20.881,72.037-50.112h62.754
				c18.18,0,32.971-14.791,32.971-32.972V57.318C335.523,35.326,320.544,16.774,300.255,11.306z M18,57.318
				c0-12.311,7.543-22.892,18.249-27.37c1.487,2.923,4.516,4.93,8.02,4.93c4.359,0,7.992-3.099,8.821-7.213h17.641
				c0.829,4.115,4.462,7.213,8.821,7.213s7.992-3.099,8.821-7.213h17.641c0.829,4.115,4.462,7.213,8.821,7.213
				s7.992-3.099,8.821-7.213h17.641c0.829,4.115,4.462,7.213,8.821,7.213c4.359,0,7.992-3.099,8.821-7.213h17.642
				c0.829,4.115,4.462,7.213,8.821,7.213c4.359,0,7.992-3.099,8.821-7.213h17.641c0.829,4.115,4.462,7.213,8.821,7.213
				s7.992-3.099,8.821-7.213h17.641c0.829,4.115,4.462,7.213,8.821,7.213s7.992-3.099,8.821-7.213h17.641
				c0.829,4.115,4.462,7.213,8.821,7.213c3.504,0,6.533-2.007,8.02-4.93c10.706,4.478,18.249,15.058,18.249,27.37v1.147H18V57.318z
				 M167.761,316.215c-32.444,0-58.839-26.395-58.839-58.839c0-32.444,26.395-58.839,58.839-58.839
				c32.444,0,58.839,26.395,58.839,58.839C226.6,289.819,200.205,316.215,167.761,316.215z M317.523,251.132
				c0,8.255-6.715,14.972-14.971,14.972h-58.461c0.326-2.867,0.51-5.775,0.51-8.728c0-42.369-34.47-76.839-76.839-76.839
				c-42.369,0-76.839,34.47-76.839,76.839c0,2.952,0.184,5.861,0.51,8.728H32.971c-8.255,0-14.971-6.716-14.971-14.972V76.465
				h299.523V251.132z"/>
			<path d="M66.249,206.537h36.471c4.971,0,9-4.029,9-9c0-4.971-4.03-9-9-9H66.249c-4.971,0-9,4.029-9,9
				C57.249,202.507,61.278,206.537,66.249,206.537z"/>
			<path d="M232.803,206.537h36.471c4.971,0,9-4.029,9-9c0-4.971-4.029-9-9-9h-36.471c-4.971,0-9,4.029-9,9
				C223.803,202.507,227.832,206.537,232.803,206.537z"/>
			<path d="M232.803,124.1h36.471c4.971,0,9-4.029,9-9s-4.029-9-9-9h-36.471c-4.971,0-9,4.029-9,9S227.832,124.1,232.803,124.1z"/>
			<path d="M66.249,165.935h36.471c4.971,0,9-4.029,9-9c0-4.971-4.03-9-9-9H66.249c-4.971,0-9,4.029-9,9
				C57.249,161.905,61.278,165.935,66.249,165.935z"/>
			<path d="M232.803,165.935h36.471c4.971,0,9-4.029,9-9c0-4.971-4.029-9-9-9h-36.471c-4.971,0-9,4.029-9,9
				C223.803,161.905,227.832,165.935,232.803,165.935z"/>
			<path d="M149.526,165.935h36.471c4.971,0,9-4.029,9-9c0-4.971-4.029-9-9-9h-36.471c-4.971,0-9,4.029-9,9
				C140.526,161.905,144.555,165.935,149.526,165.935z"/>
			<path d="M149.526,124.1h36.471c4.971,0,9-4.029,9-9s-4.029-9-9-9h-36.471c-4.971,0-9,4.029-9,9S144.555,124.1,149.526,124.1z"/>
			<path d="M66.937,124.1h36.471c4.971,0,9-4.029,9-9s-4.029-9-9-9H66.937c-4.971,0-9,4.029-9,9S61.966,124.1,66.937,124.1z"/>
			<path d="M191.715,257.376h-17.953v-29.486c0-4.971-4.029-9-9-9c-4.971,0-9,4.029-9,9v38.486c0,4.971,4.029,9,9,9h26.953
				c4.971,0,9-4.029,9-9S196.686,257.376,191.715,257.376z"/>
		</g>
	</g>
</g>
<g>
</g>
<g>
</g>
<g>
</g>
<g>
</g>
<g>
</g>
<g>
</g>
<g>
</g>
<g>
</g>
<g>
</g>
<g>
</g>
<g>
</g>
<g>
</g>
<g>
</g>
<g>
</g>
<g>
</g>
</svg>
