<?xml version="1.0" encoding="iso-8859-1"?>
<!-- Generator: Adobe Illustrator 19.0.0, SVG Export Plug-In . SVG Version: 6.00 Build 0)  -->
<svg version="1.1" id="Layer_1" xmlns="http://www.w3.org/2000/svg" xmlns:xlink="http://www.w3.org/1999/xlink" x="0px" y="0px"
	 viewBox="0 0 512 512" style="enable-background:new 0 0 512 512;" xml:space="preserve">
<g>
	<g>
		<path d="M469.973,75.985H353.357V50.769c0-11.605-9.408-21.013-21.013-21.013c-11.605,0-21.013,9.408-21.013,21.013v25.216
			H200.659V50.769c0-11.605-9.408-21.013-21.013-21.013c-11.605,0-21.013,9.408-21.013,21.013v25.216H42.027
			C18.853,75.985,0,94.838,0,118.012c0,11.55,0,297.873,0,322.206c0,23.174,18.853,42.027,42.027,42.027
			c18.793,0,409.188,0,427.946,0c23.174,0,42.027-18.853,42.027-42.027c0-24.441,0-310.739,0-322.206
			C512,94.838,493.147,75.985,469.973,75.985z M42.027,190.858v-72.847h0l116.607-0.007v19.62c0,11.605,9.408,21.013,21.013,21.013
			c11.605,0,21.013-9.408,21.013-21.013v-19.621l110.671-0.006v19.627c0,11.605,9.408,21.013,21.013,21.013
			c11.605,0,21.013-9.408,21.013-21.013v-19.629l116.615-0.007c0,0,0,0.008,0,0.024v72.847
			C451.18,190.858,60.785,190.858,42.027,190.858z M234.987,440.218H42.027V232.885h192.96V440.218z M469.973,440.218h-192.96
			V232.885h192.96V440.218z"/>
	</g>
</g>
<g>
	<g>
		<path d="M159.904,299.504c-13.867-21.128-39.257-21.367-53.278,0c-13.111,19.069-12.829,49.983,0,68.643
			c14.155,21.236,39.103,21.263,53.278,0C172.663,349.154,172.846,318.766,159.904,299.504z M146.691,359.243
			c-8.047,11.931-18.766,11.8-26.997,0c-9.068-13.601-9.289-36.713,0-50.98c8.108-11.35,18.614-12.139,26.997,0
			C155.973,322.516,155.766,345.634,146.691,359.243z"/>
	</g>
</g>
<g>
	<g>
		<path d="M394.889,299.504c-13.866-21.128-39.256-21.367-53.278,0c-13.111,19.069-12.829,49.983,0,68.643
			c14.155,21.236,39.103,21.263,53.278,0C407.648,349.154,407.831,318.766,394.889,299.504z M381.676,359.243
			c-8.045,11.931-18.765,11.8-26.997,0c-9.068-13.603-9.289-36.713,0-50.98c8.108-11.35,18.614-12.139,26.997,0
			C390.957,322.516,390.751,345.634,381.676,359.243z"/>
	</g>
</g>
<g>
</g>
<g>
</g>
<g>
</g>
<g>
</g>
<g>
</g>
<g>
</g>
<g>
</g>
<g>
</g>
<g>
</g>
<g>
</g>
<g>
</g>
<g>
</g>
<g>
</g>
<g>
</g>
<g>
</g>
</svg>
