<?xml version="1.0" encoding="iso-8859-1"?>
<!-- Generator: Adobe Illustrator 16.0.0, SVG Export Plug-In . SVG Version: 6.00 Build 0)  -->
<!DOCTYPE svg PUBLIC "-//W3C//DTD SVG 1.1//EN" "http://www.w3.org/Graphics/SVG/1.1/DTD/svg11.dtd">
<svg version="1.1" id="Capa_1" xmlns="http://www.w3.org/2000/svg" xmlns:xlink="http://www.w3.org/1999/xlink" x="0px" y="0px"
	 width="45.413px" height="45.412px" viewBox="0 0 45.413 45.412" style="enable-background:new 0 0 45.413 45.412;"
	 xml:space="preserve">
<g>
	<g>
		<path d="M42.821,6.161L23.453,0.113c-0.486-0.151-1.006-0.151-1.492,0L2.593,6.161c-1.045,0.326-1.758,1.294-1.758,2.39
			c0,26.781,13.531,33.182,20.801,36.621c0.339,0.16,0.705,0.24,1.071,0.24s0.731-0.08,1.069-0.24
			c7.271-3.438,20.802-9.84,20.802-36.621C44.579,7.456,43.866,6.488,42.821,6.161z M22.707,40.137
			c-6.902-3.317-16.324-8.812-16.842-29.75l16.842-5.26l16.841,5.26C39.031,31.325,29.608,36.819,22.707,40.137z"/>
		<path d="M8.709,12.477c0,6.185,1.609,11.054,3.783,14.804l17.043-17.043l-6.829-2.133L8.709,12.477z"/>
		<path d="M22.707,37.307c4.785-2.151,13.79-9.353,13.992-24.317l-19.89,19.89C19.104,35.167,21.347,36.592,22.707,37.307z"/>
	</g>
</g>
<g>
</g>
<g>
</g>
<g>
</g>
<g>
</g>
<g>
</g>
<g>
</g>
<g>
</g>
<g>
</g>
<g>
</g>
<g>
</g>
<g>
</g>
<g>
</g>
<g>
</g>
<g>
</g>
<g>
</g>
</svg>
